<svg xmlns="http://www.w3.org/2000/svg" viewBox="0 0 512 512">
<rect width="512" height="512" fill="#1f7a4d"/>
<rect x="140.5" y="170" width="13.2" height="150" fill="#ffffff"/><rect x="160.3" y="170" width="6.6" height="150" fill="#ffffff"/><rect x="173.5" y="170" width="19.8" height="150" fill="#ffffff"/><rect x="199.9" y="170" width="6.6" height="150" fill="#ffffff"/><rect x="213.1" y="170" width="13.2" height="150" fill="#ffffff"/><rect x="232.9" y="170" width="6.6" height="150" fill="#ffffff"/><rect x="246.1" y="170" width="19.8" height="150" fill="#ffffff"/><rect x="272.5" y="170" width="6.6" height="150" fill="#ffffff"/><rect x="285.7" y="170" width="13.2" height="150" fill="#ffffff"/><rect x="305.5" y="170" width="6.6" height="150" fill="#ffffff"/><rect x="318.7" y="170" width="19.8" height="150" fill="#ffffff"/><rect x="345.1" y="170" width="6.6" height="150" fill="#ffffff"/><rect x="358.3" y="170" width="13.2" height="150" fill="#ffffff"/>
<rect x="130" y="238" width="252" height="14" rx="7" fill="#ffd54f"/>
<text x="256" y="372" text-anchor="middle" font-family="-apple-system, Helvetica, Arial, sans-serif" font-size="44" font-weight="700" fill="#ffffff">SCAN</text>
</svg>